<svg xmlns="http://www.w3.org/2000/svg" viewBox="185 265 130 65"><script><![CDATA[
		window.addEventListener("load", () => {
			const needle = document.getElementById("needle");
			const wiggleRange = 19;
			const volatility = 1.5;
			const adjust = -20;
			let nudgeVal = 0;
			let up = true;
			const animation = () => {
				up = (Math.random() < (Math.abs(nudgeVal) / wiggleRange)) ? (nudgeVal < 0) : !up;
				nudgeVal += Math.random() * volatility * (up ? 1 : -1);
				needle.setAttribute('transform', 'rotate(' + (nudgeVal+adjust) + ' 279 298)');
				window.requestAnimationFrame(animation);
			}
			window.requestAnimationFrame(animation);
		}, false);
	]]></script><path id="needle" fill="#ed0677" d="M298.8 295.9l-.1-.9-17.6 1.4c-.5-.8-1.4-1.3-2.4-1.2-.9.1-1.7.7-2 1.5l-3.5.3.3 2.7 3.5-.5c.5.7 1.4 1.1 2.3 1 1-.1 1.8-.8 2.1-1.7l17.4-2.6z"/><path id="wheel" fill="#211d70" d="M254.8 295.3c.1-1.2.3-2.4.6-3.5l4 1.1c.1-.3.2-.7.2-1l-4-1.1c.5-1.8 1.2-3.4 2.1-5l3.5 2c.2-.3.3-.6.5-.9l-3.6-2.1c.9-1.5 2.1-3 3.3-4.3l2.9 2.9.7-.7-2.9-2.9c1.3-1.2 2.7-2.4 4.3-3.3l2.1 3.6c.3-.2.6-.4.9-.5l-2-3.5c1.6-.9 3.2-1.6 5-2.1l1.1 4c.3-.1.6-.2 1-.2l-1.1-4c1.7-.4 3.5-.7 5.4-.7v4.1h1v-4.1c1.8 0 3.6.3 5.4.7l-1.1 4c.3.1.7.2 1 .2l1.1-4c1.8.5 3.4 1.2 5 2.1l-2 3.5c.3.2.6.3.9.5l2.1-3.6c1.5.9 3 2.1 4.3 3.3l-2.9 2.9.7.7 2.9-2.9c1.2 1.3 2.4 2.7 3.3 4.3l-3.6 2.1c.2.3.4.6.5.9l3.5-2c.9 1.6 1.6 3.2 2.1 5l-4 1.1c.1.3.2.6.2 1l4-1.1c.5 1.9.7 3.8.7 5.9 0 2-.3 4-.7 5.9l-4-1.1c-.1.3-.2.7-.2 1l4 1.1c-.5 1.8-1.2 3.4-2.1 5l-3.5-2c-.2.3-.3.6-.5.9l3.6 2.1c-.9 1.5-2.1 3-3.3 4.3l-2.9-2.9-.7.7 2.9 2.9c-1 .9-2 1.8-3.1 2.6l1.3 1.5c6.9-4.8 11.4-12.7 11.4-21.7 0-14.6-11.9-26.5-26.5-26.5-13.8 0-25.2 10.6-26.4 24.1l1.6-.3z"/><g id="wheel-blobs" fill="#211d70"><circle cx="279.2" cy="267.6" r="1.5"/><circle cx="309.3" cy="297.6" r="1.5"/><circle cx="271.4" cy="268.6" r="1.5"/><circle cx="308.2" cy="289.8" r="1.5"/><circle cx="264.2" cy="271.6" r="1.5"/><circle cx="305.2" cy="282.6" r="1.5"/><circle cx="258" cy="276.4" r="1.5"/><circle cx="300.5" cy="318.8" r="1.5"/><circle cx="300.5" cy="276.4" r="1.5"/><circle cx="253.2" cy="282.6" r="1.5"/><circle cx="305.2" cy="312.6" r="1.5"/><circle cx="294.2" cy="271.6" r="1.5"/><circle cx="250.2" cy="289.8" r="1.5"/><circle cx="308.2" cy="305.4" r="1.5"/><circle cx="287" cy="268.6" r="1.5"/></g><path id="primary-text" fill="#211d70" d="M197.8 309.2c.3.3.4.6.4 1s-.1.7-.4 1c-.3.3-.6.4-1 .4H189c-.4 0-.8-.1-1-.4-.3-.3-.4-.6-.4-1v-13.9c0-.4.1-.8.4-1 .3-.3.7-.4 1.1-.4.4 0 .7.1 1 .4.3.3.4.6.4 1v12.5h6.3c.3 0 .7.1 1 .4zm13.4-.6c-.6 1-1.4 1.8-2.4 2.4-1 .6-2.1.8-3.3.8-1.2 0-2.3-.3-3.3-.8-1-.6-1.8-1.3-2.4-2.4-.6-1-.9-2.2-.9-3.4s.3-2.4.9-3.4c.6-1 1.4-1.8 2.4-2.4 1-.6 2.1-.9 3.3-.9 1.2 0 2.3.3 3.3.9 1 .6 1.8 1.4 2.4 2.4.6 1 .9 2.2.9 3.4s-.3 2.4-.9 3.4zm-2.5-5.5c-.3-.6-.8-1.1-1.3-1.4-.6-.3-1.2-.5-1.8-.5-.7 0-1.3.2-1.8.5-.6.3-1 .8-1.3 1.4-.3.6-.5 1.3-.5 2.1s.2 1.5.5 2.1c.3.6.8 1.1 1.3 1.4.6.3 1.2.5 1.8.5.7 0 1.3-.2 1.8-.5.6-.3 1-.8 1.3-1.4.3-.6.5-1.3.5-2.1s-.2-1.5-.5-2.1zm15.7-3.1c.6 1 .9 2.3.9 4v6.1c0 .4-.1.8-.4 1s-.6.4-1 .4-.8-.1-1-.4c-.3-.3-.4-.6-.4-1V304c0-.9-.2-1.6-.6-2.1-.4-.5-1-.8-1.9-.8-.9 0-1.7.3-2.2.8-.5.5-.8 1.2-.8 2v6.1c0 .4-.1.8-.4 1-.3.3-.6.4-1 .4s-.8-.1-1-.4-.4-.6-.4-1v-9.9c0-.4.1-.8.4-1s.6-.4 1-.4.8.1 1 .4c.3.3.4.6.4 1v.4c.4-.6 1-1.1 1.7-1.5.7-.4 1.5-.6 2.3-.6 1.6.1 2.8.6 3.4 1.6zm15.2-5.7c.3.3.4.6.4 1.1v14.8c0 .4-.1.8-.4 1s-.6.4-1 .4-.8-.1-1-.4c-.3-.3-.4-.6-.4-1-.4.5-.9.9-1.6 1.2-.7.3-1.4.5-2.1.5-1.1 0-2.1-.3-3-.9-.9-.6-1.6-1.4-2.1-2.4s-.8-2.2-.8-3.4.3-2.4.8-3.4 1.2-1.8 2.1-2.4c.9-.6 1.9-.9 2.9-.9.8 0 1.5.1 2.2.4s1.2.6 1.7 1.1v-4.7c0-.4.1-.8.4-1 .3-.3.6-.4 1-.4.2 0 .6.1.9.4zm-3.4 13.8c.7-.8 1-1.7 1-2.9s-.3-2.1-1-2.9c-.7-.8-1.5-1.2-2.5-1.2s-1.9.4-2.5 1.2c-.7.8-1 1.7-1 2.9s.3 2.1 1 2.9c.6.8 1.5 1.1 2.5 1.1s1.9-.4 2.5-1.1zm18.1.5c-.6 1-1.4 1.8-2.4 2.4-1 .6-2.1.8-3.3.8-1.2 0-2.3-.3-3.3-.8-1-.6-1.8-1.3-2.4-2.4-.6-1-.9-2.2-.9-3.4s.3-2.4.9-3.4c.6-1 1.4-1.8 2.4-2.4 1-.6 2.1-.9 3.3-.9 1.2 0 2.3.3 3.3.9 1 .6 1.8 1.4 2.4 2.4.6 1 .9 2.2.9 3.4s-.4 2.4-.9 3.4zm-2.5-5.5c-.3-.6-.8-1.1-1.3-1.4-.6-.3-1.2-.5-1.8-.5-.7 0-1.3.2-1.8.5-.6.3-1 .8-1.3 1.4-.3.6-.5 1.3-.5 2.1s.2 1.5.5 2.1c.3.6.8 1.1 1.3 1.4.6.3 1.2.5 1.8.5.7 0 1.3-.2 1.8-.5.6-.3 1-.8 1.3-1.4.3-.6.5-1.3.5-2.1s-.2-1.5-.5-2.1zm15.7-3.1c.6 1 .9 2.3.9 4v6.1c0 .4-.1.8-.4 1s-.6.4-1 .4-.8-.1-1-.4c-.3-.3-.4-.6-.4-1V304c0-.9-.2-1.6-.6-2.1-.4-.5-1-.8-1.9-.8-.9 0-1.7.3-2.2.8-.5.5-.8 1.2-.8 2v6.1c0 .4-.1.8-.4 1-.3.3-.6.4-1 .4s-.8-.1-1-.4-.4-.6-.4-1v-9.9c0-.4.1-.8.4-1s.6-.4 1-.4.8.1 1 .4c.3.3.4.6.4 1v.4c.4-.6 1-1.1 1.7-1.5.7-.4 1.5-.6 2.3-.6 1.6.1 2.7.6 3.4 1.6z"/><path id="secondary-text" fill="#00b7bf" d="M194.3 317.2c.1.1.2.3.2.5v.3l-1.8 4.9c0 .1-.1.3-.3.3-.1.1-.3.1-.4.1h-.1c-.3 0-.5-.2-.6-.5l-1-3-1 3c-.1.3-.3.4-.6.5h-.1c-.1 0-.3 0-.4-.1l-.3-.3-1.8-4.9v-.3c0-.2.1-.4.2-.5.1-.1.3-.2.5-.2s.3 0 .4.1c.1.1.2.2.2.3l1.3 3.5.9-2.6c.1-.3.3-.4.7-.4.2 0 .3 0 .4.1.1.1.2.2.2.3l.9 2.5 1.3-3.5c0-.2.1-.3.3-.3s.3-.1.4-.1c.2.1.4.2.5.3zm6.7 3.3c-.1.1-.3.2-.5.2h-4c.1.5.3.8.7 1.1.3.3.7.4 1.2.4.3 0 .6 0 .8-.1.2-.1.3-.1.4-.2.1-.1.2-.1.2-.1.1-.1.3-.1.4-.1.2 0 .3.1.4.2s.2.3.2.4c0 .2-.1.4-.3.6-.2.2-.5.3-.9.5-.4.1-.8.2-1.1.2-.7 0-1.3-.1-1.8-.4s-.9-.7-1.2-1.2-.4-1-.4-1.7.1-1.3.4-1.8c.3-.5.7-.9 1.1-1.2.5-.3 1-.4 1.5-.4s1 .1 1.5.4c.5.3.8.7 1.1 1.2.3.5.4 1 .4 1.6.1.1 0 .3-.1.4zm-4.5-1h3.1v-.1c0-.3-.2-.6-.5-.9-.3-.2-.6-.4-1-.4-.9.1-1.4.5-1.6 1.4zm10.7-2.2c.4.3.8.7 1.1 1.2.3.5.4 1.1.4 1.7 0 .6-.1 1.2-.4 1.7-.3.5-.6.9-1 1.2s-.9.4-1.5.4c-.4 0-.7-.1-1.1-.2-.3-.2-.6-.3-.8-.6v.1c0 .2-.1.4-.2.5-.1.1-.3.2-.5.2s-.4-.1-.5-.2-.2-.3-.2-.5v-7.5c0-.2.1-.4.2-.5.1-.1.3-.2.5-.2s.4.1.5.2c.1.1.2.3.2.5v2.5c.2-.2.5-.5.8-.6.3-.2.7-.3 1.1-.3.5 0 1 .1 1.4.4zm-.4 4.3c.3-.4.5-.9.5-1.4s-.2-1.1-.5-1.4c-.3-.4-.7-.6-1.3-.6s-.9.2-1.3.6-.5.9-.5 1.4.2 1.1.5 1.4c.3.4.8.6 1.3.6s1-.2 1.3-.6zm11.2-4.3c.4.3.8.7 1.1 1.2.3.5.4 1.1.4 1.7 0 .6-.1 1.2-.4 1.7-.3.5-.6.9-1 1.2s-.9.4-1.5.4c-.4 0-.7-.1-1.1-.2-.3-.2-.6-.3-.8-.6v2.4c0 .2-.1.4-.2.5-.1.1-.3.2-.5.2s-.4-.1-.5-.2-.2-.3-.2-.5v-7.4c0-.2.1-.4.2-.5.1-.1.3-.2.5-.2s.4.1.5.2c.1.1.2.3.2.5.2-.2.5-.5.8-.6.3-.2.7-.3 1.1-.3.5.1 1 .2 1.4.5zm-.4 4.3c.3-.4.5-.9.5-1.4s-.2-1.1-.5-1.4c-.3-.4-.7-.6-1.3-.6s-.9.2-1.3.6-.5.9-.5 1.4.2 1.1.5 1.4c.3.4.8.6 1.3.6.6 0 1-.2 1.3-.6zm8.7-1.1c-.1.1-.3.2-.5.2h-4c.1.5.3.8.7 1.1.3.3.7.4 1.2.4.3 0 .6 0 .8-.1.2-.1.3-.1.4-.2.1-.1.2-.1.2-.1.1-.1.3-.1.4-.1.2 0 .3.1.4.2s.2.3.2.4c0 .2-.1.4-.3.6-.2.2-.5.3-.9.5-.4.1-.8.2-1.1.2-.7 0-1.3-.1-1.8-.4s-.9-.7-1.2-1.2-.4-1-.4-1.7.1-1.3.4-1.8c.3-.5.7-.9 1.1-1.2.5-.3 1-.4 1.5-.4s1 .1 1.5.4c.5.3.8.7 1.1 1.2.3.5.4 1 .4 1.6.1.1 0 .3-.1.4zm-4.5-1h3.1v-.1c0-.3-.2-.6-.5-.9-.3-.2-.6-.4-1-.4-.8.1-1.4.5-1.6 1.4zm9.8-2.4c.2.1.2.3.2.5s-.1.4-.2.6-.3.2-.5.2c-.1 0-.3 0-.4-.1h-.5c-.2 0-.4.1-.6.2s-.4.3-.5.6-.2.6-.2.9v2.8c0 .2-.1.4-.2.5-.1.1-.3.2-.5.2s-.4-.1-.5-.2c-.1-.1-.2-.3-.2-.5v-5c0-.2.1-.4.2-.5.1-.1.3-.2.5-.2s.4.1.5.2c.1.1.2.3.2.5v.2c.2-.3.4-.6.8-.8.3-.2.7-.3 1.1-.3.5 0 .7 0 .8.2zm3.9-1.1c-.1.2-.2.3-.2.5v.6h1.1c.2 0 .4.1.5.2s.2.3.2.5-.1.3-.2.5-.3.2-.5.2h-1.1v4.2c0 .2-.1.4-.2.5-.1.1-.3.2-.5.2s-.4-.1-.5-.2c-.1-.1-.2-.3-.2-.5v-4.2h-.6c-.2 0-.4-.1-.5-.2s-.2-.3-.2-.5.1-.3.2-.5.3-.2.5-.2h.6v-.6c0-.6.2-1.1.6-1.5s1-.6 1.8-.6c.3 0 .6.1.8.2.2.1.3.3.3.6 0 .2-.1.3-.2.5-.1.1-.2.2-.4.2h-.2c-.2 0-.4-.1-.5-.1-.3 0-.5.1-.6.2zm8.1 5.9c-.3.5-.7.9-1.2 1.2s-1 .4-1.6.4c-.6 0-1.2-.1-1.7-.4s-.9-.7-1.2-1.2-.4-1.1-.4-1.7c0-.6.1-1.2.4-1.7s.7-.9 1.2-1.2c.5-.3 1-.4 1.7-.4.6 0 1.1.1 1.6.4.5.3.9.7 1.2 1.2s.4 1.1.4 1.7c0 .6-.1 1.2-.4 1.7zm-1.2-2.7c-.2-.3-.4-.5-.7-.7s-.6-.3-.9-.3-.6.1-.9.3-.5.4-.7.7c-.2.3-.2.7-.2 1 0 .4.1.7.2 1 .2.3.4.5.7.7s.6.3.9.3.6-.1.9-.3.5-.4.7-.7c.2-.3.2-.7.2-1 0-.4-.1-.7-.2-1zm6.8-2.1c.2.1.2.3.2.5s-.1.4-.2.6-.3.2-.5.2c-.1 0-.3 0-.4-.1h-.5c-.2 0-.4.1-.6.2s-.4.3-.5.6-.2.6-.2.9v2.8c0 .2-.1.4-.2.5-.1.1-.3.2-.5.2s-.4-.1-.5-.2c-.1-.1-.2-.3-.2-.5v-5c0-.2.1-.4.2-.5.1-.1.3-.2.5-.2s.4.1.5.2c.1.1.2.3.2.5v.2c.2-.3.4-.6.8-.8.3-.2.7-.3 1.1-.3.4 0 .6 0 .8.2zm10.2.5c.3.5.5 1.2.5 2v3.1c0 .2-.1.4-.2.5-.1.1-.3.2-.5.2s-.4-.1-.5-.2c-.1-.1-.2-.3-.2-.5v-3.1c0-.4-.1-.8-.3-1s-.5-.4-.9-.4-.8.1-1.1.4c-.3.3-.4.6-.4 1v3.1c0 .2-.1.4-.2.5-.1.1-.3.2-.5.2s-.4-.1-.5-.2c-.1-.1-.2-.3-.2-.5v-3.1c0-.4-.1-.8-.3-1-.2-.3-.5-.4-.9-.4s-.8.1-1 .4c-.3.3-.4.6-.4 1v3.1c0 .2-.1.4-.2.5-.1.1-.3.2-.5.2s-.4-.1-.5-.2c-.1-.1-.2-.3-.2-.5v-5c0-.2.1-.4.2-.5.1-.1.3-.2.5-.2s.4.1.5.2c.1.1.2.3.2.5v.2c.2-.3.5-.5.8-.7s.7-.3 1.1-.3c1 0 1.7.4 1.9 1.3.2-.3.5-.6.8-.9.4-.3.8-.4 1.3-.4.9 0 1.4.2 1.7.7zm7.7-.5c.1.1.2.3.2.5v5.1c0 .2-.1.4-.2.5-.1.1-.3.2-.5.2s-.4-.1-.5-.2c-.1-.1-.2-.3-.2-.5-.2.2-.5.4-.8.6-.3.2-.7.2-1.1.2-.6 0-1.1-.1-1.5-.4-.4-.3-.8-.7-1.1-1.2-.3-.5-.4-1.1-.4-1.7 0-.6.1-1.2.4-1.7.3-.5.6-.9 1-1.2.4-.3.9-.4 1.5-.4.4 0 .7.1 1.1.2.3.1.6.3.9.5 0-.2.1-.4.2-.5.1-.1.3-.2.5-.2s.4 0 .5.2zm-1.6 4.5c.3-.4.5-.9.5-1.4 0-.6-.2-1.1-.5-1.4-.3-.4-.8-.6-1.3-.6s-.9.2-1.3.6-.5.9-.5 1.4c0 .6.2 1.1.5 1.4.3.4.7.6 1.3.6s.9-.2 1.3-.6zm8.5-4c.3.5.5 1.2.5 2v3.1c0 .2-.1.4-.2.5-.1.1-.3.2-.5.2s-.4-.1-.5-.2c-.1-.1-.2-.3-.2-.5v-3.1c0-.4-.1-.8-.3-1s-.5-.4-.9-.4c-.5 0-.8.1-1.1.4-.3.3-.4.6-.4 1v3.1c0 .2-.1.4-.2.5-.1.1-.3.2-.5.2s-.4-.1-.5-.2c-.1-.1-.2-.3-.2-.5v-5c0-.2.1-.4.2-.5.1-.1.3-.2.5-.2s.4.1.5.2c.1.1.2.3.2.5v.2c.2-.3.5-.5.8-.7s.7-.3 1.1-.3c.9 0 1.4.2 1.7.7zm6.5-.4c.4.2.6.5.6.8 0 .2-.1.3-.2.5s-.2.2-.4.2c-.1 0-.2 0-.3-.1s-.2-.1-.2-.1c-.1-.1-.1-.1-.2-.1s-.2-.1-.4-.1h-.4c-.6 0-1.1.2-1.4.6-.3.4-.5.9-.5 1.5s.2 1.1.5 1.4c.3.4.8.6 1.3.6.4 0 .7 0 .9-.1 0 0 .1-.1.2-.1s.2-.1.2-.1h.3c.2 0 .4.1.5.2.1.1.2.3.2.5s-.1.4-.3.5c-.2.2-.5.3-.9.4-.4.1-.8.1-1.2.1-.6 0-1.2-.1-1.6-.4-.5-.3-.8-.7-1.1-1.2-.3-.5-.4-1.1-.4-1.7 0-.6.1-1.2.4-1.7s.6-.9 1.1-1.2c.5-.3 1-.4 1.6-.4.7-.3 1.3-.2 1.7 0zm7.2 3.3c-.1.1-.3.2-.5.2h-4c.1.5.3.8.7 1.1.3.3.7.4 1.2.4.3 0 .6 0 .8-.1.2-.1.3-.1.4-.2.1-.1.2-.1.2-.1.1-.1.3-.1.4-.1.2 0 .3.1.4.2s.2.3.2.4c0 .2-.1.4-.3.6-.2.2-.5.3-.9.5-.4.1-.8.2-1.1.2-.7 0-1.3-.1-1.8-.4s-.9-.7-1.2-1.2-.4-1-.4-1.7.1-1.3.4-1.8c.3-.5.7-.9 1.1-1.2.5-.3 1-.4 1.5-.4s1 .1 1.5.4c.5.3.8.7 1.1 1.2.3.5.4 1 .4 1.6.1.1.1.3-.1.4zm-4.4-1h3.1v-.1c0-.3-.2-.6-.5-.9-.3-.2-.6-.4-1-.4-.9.1-1.5.5-1.6 1.4z"/></svg>