<svg xmlns="http://www.w3.org/2000/svg" viewBox="0 20 100 60"><switch><g><path d="M92.5 28.8c-.8-1.5-2.7-2.2-4.2-1.4-1.5.8-2.2 2.7-1.4 4.2 2.9 5.7 4.3 11.8 4.3 18.4s-1.5 12.7-4.3 18.4c-.8 1.5-.2 3.4 1.4 4.2.5.2.9.3 1.4.3 1.1 0 2.2-.6 2.8-1.7 3.3-6.6 5-13.7 5-21.2s-1.7-14.6-5-21.2zm-80.8-1.4c-1.5-.8-3.4-.2-4.2 1.4-3.3 6.6-5 13.7-5 21.2s1.7 14.6 5 21.2c.5 1.1 1.6 1.7 2.8 1.7.5 0 .9-.1 1.4-.3 1.5-.8 2.2-2.7 1.4-4.2-2.9-5.7-4.4-11.9-4.4-18.4s1.5-12.7 4.3-18.4c.8-1.5.2-3.4-1.3-4.2zm64 6.3c-1.5.8-2.2 2.7-1.4 4.2 1.9 3.8 2.9 7.8 2.9 12.1s-1 8.3-2.9 12.1c-.8 1.5-.2 3.4 1.4 4.2.5.2.9.3 1.4.3 1.1 0 2.2-.6 2.8-1.7 2.3-4.6 3.5-9.7 3.5-14.9 0-5.2-1.2-10.3-3.5-14.9-.8-1.5-2.7-2.1-4.2-1.4zm-51.4 0c-1.5-.8-3.4-.2-4.2 1.4-2.3 4.6-3.5 9.7-3.5 14.9s1.2 10.3 3.5 14.9c.5 1.1 1.6 1.7 2.8 1.7.5 0 1-.1 1.4-.3 1.5-.8 2.2-2.7 1.4-4.2-1.9-3.8-2.9-7.8-2.9-12.1s1-8.3 2.9-12.1c.8-1.5.2-3.4-1.4-4.2zm25.7-3c-10.6 0-19.3 8.7-19.3 19.3S39.4 69.3 50 69.3 69.3 60.6 69.3 50 60.7 30.7 50 30.7zM56.4 51l-8.9 5.9c-.8.5-1.8 0-1.8-1V44.1c0-.9 1-1.5 1.8-1l8.9 5.9c.6.5.6 1.5 0 2z"/></g></switch></svg>