<svg xmlns="http://www.w3.org/2000/svg" viewBox="0 0 1203.245 1337.274"><path d="M233.226 0c-26.081 0-47.163 21.127-47.163 47.162v31.459H47.165C21.084 78.621 0 99.751 0 125.785v770.284c0 26.035 21.084 47.164 47.165 47.164h622.047v-.49c52.843 76.693 141.251 127.076 241.195 127.076 161.442 0 292.838-131.351 292.838-292.795 0-105.773-56.385-198.623-140.686-250.084V125.785c0-26.034-21.086-47.164-47.168-47.164H881.729V47.162C881.729 21.127 860.649 0 834.566 0c-26.082 0-47.164 21.127-47.164 47.162v31.459H280.39V47.162C280.39 21.127 259.308 0 233.226 0zM94.329 172.949h91.734v31.414c0 26.035 21.082 47.162 47.163 47.162 26.082 0 47.164-21.127 47.164-47.162v-31.414h507.012v31.414c0 26.035 21.082 47.162 47.164 47.162 26.083 0 47.163-21.127 47.163-47.162v-31.414h86.497v184.036H94.329V172.949zm0 231.2h873.897v85.823a293.165 293.165 0 00-57.819-5.74c-62.231 0-119.99 19.545-167.481 52.798v-37.095h-91.592v91.451h32.865c-41.555 50.561-66.538 115.236-66.538 185.638 0 24.793 3.111 48.874 8.941 71.881H94.329V404.149zm81.971 95.786v91.451h91.5v-91.451h-91.5zm158.329 0v91.451h91.5v-91.451h-91.5zm158.376 0v91.451h91.546v-91.451h-91.546zm417.402 31.459c135.503 0 245.675 110.176 245.675 245.63 0 135.456-110.172 245.633-245.675 245.633-135.406 0-245.583-110.177-245.583-245.633 0-135.454 110.177-245.63 245.583-245.63zm0 68.105c-26.081 0-47.168 21.13-47.168 47.164v83.197h-83.195c-26.082 0-47.165 21.13-47.165 47.164 0 26.035 21.083 47.162 47.165 47.162h83.195v83.152c0 26.034 21.087 47.164 47.168 47.164 26.036 0 47.165-21.083 47.165-47.164v-83.152h83.146c26.081 0 47.168-21.127 47.168-47.162 0-26.034-21.087-47.164-47.168-47.164h-83.146v-83.197c0-26.034-21.083-47.164-47.165-47.164zM176.3 646.901v91.451h91.5v-91.451h-91.5zm158.329 0v91.451h91.5v-91.451h-91.5zm158.376 0v91.451h91.546v-91.451h-91.546z"/></svg>