<svg viewBox="0 0 23 16" xmlns="http://www.w3.org/2000/svg"><g fill-rule="evenodd"><path d="M7.54 6.903v2.4h3.97c-.16 1.03-1.2 3.02-3.97 3.02-2.39 0-4.34-1.98-4.34-4.42s1.95-4.42 4.34-4.42c1.36 0 2.27.58 2.79 1.08l1.9-1.83c-1.22-1.14-2.8-1.83-4.69-1.83-3.87 0-7 3.13-7 7s3.13 7 7 7c4.04 0 6.72-2.84 6.72-6.84 0-.46-.05-.81-.11-1.16H7.54z"/><path d="M7.54 7.023h6.61c.07.33.11.68.11 1.1v-.07c0-.46-.05-.81-.11-1.16H7.54v.13zm0-6c1.85 0 3.41.67 4.61 1.77l.07-.07C11.01 1.593 9.43.903 7.54.903c-3.87 0-7 3.13-7 7v.06c.04-3.83 3.16-6.94 7-6.94zm0 11.42c2.77 0 3.81-1.98 3.97-3.02h-.03c-.22 1.06-1.27 2.89-3.94 2.89-2.37 0-4.3-1.95-4.33-4.35 0 .02-.01.04-.01.06 0 2.44 1.95 4.42 4.34 4.42z" opacity=".4"/><g fill="#3E2723" opacity=".1"><path d="M7.54 3.483c-2.39 0-4.34 1.98-4.34 4.42 0 .02.01.04.01.06.03-2.41 1.96-4.35 4.33-4.35 1.36 0 2.27.58 2.79 1.08l1.9-1.83c-.02-.02-.05-.04-.07-.06l-1.83 1.77c-.52-.5-1.43-1.09-2.79-1.09zm0 5.82v.12h3.94c.01-.04.02-.09.03-.12H7.54z"/><path d="M7.54 14.903c-3.84 0-6.96-3.1-7-6.94v.06c0 3.87 3.13 7 7 7 4.04 0 6.72-2.84 6.72-6.84v-.06c-.03 3.97-2.7 6.78-6.72 6.78z"/></g><path d="M22.54 6.903h-2v-2h-2v2h-2v2h2v2h2v-2h2"/><path d="M20.54 6.903h2v.12h-2v-.12zm-2-2h2v.12h-2v-.12zm-2 2h2v.12h-2v-.12z" opacity=".4"/><path d="M16.54 8.903h2v.12h-2v-.12zm4 0h2v.12h-2v-.12zm-2 2h2v.12h-2v-.12z" opacity=".1" fill="#3E2723"/></g></svg>