<?xml version="1.0" encoding="UTF-8"?><!DOCTYPE svg PUBLIC "-//W3C//DTD SVG 1.1//EN" "http://www.w3.org/Graphics/SVG/1.1/DTD/svg11.dtd"><svg xmlns="http://www.w3.org/2000/svg" xmlns:xlink="http://www.w3.org/1999/xlink"><defs/><symbol id="arrow-right" viewBox="0 0 9 13"><path d="M8.122 7.245l-5.737 5.2a1.124 1.124 0 01-1.603 0 1.128 1.128 0 010-1.598l4.932-4.476L.782 1.895a1.128 1.128 0 010-1.598 1.124 1.124 0 011.603 0l5.737 5.2c.24.24.345.56.326.874.02.315-.086.634-.326.874" fill="#1E2550" fill-rule="evenodd"/></symbol><symbol id="calendar" viewBox="0 0 1203.245 1337.274"><path d="M233.226 0c-26.081 0-47.163 21.127-47.163 47.162v31.459H47.165C21.084 78.621 0 99.751 0 125.785v770.284c0 26.035 21.084 47.164 47.165 47.164h622.047v-.49c52.843 76.693 141.251 127.076 241.195 127.076 161.442 0 292.838-131.351 292.838-292.795 0-105.773-56.385-198.623-140.686-250.084V125.785c0-26.034-21.086-47.164-47.168-47.164H881.729V47.162C881.729 21.127 860.649 0 834.566 0c-26.082 0-47.164 21.127-47.164 47.162v31.459H280.39V47.162C280.39 21.127 259.308 0 233.226 0zM94.329 172.949h91.734v31.414c0 26.035 21.082 47.162 47.163 47.162 26.082 0 47.164-21.127 47.164-47.162v-31.414h507.012v31.414c0 26.035 21.082 47.162 47.164 47.162 26.083 0 47.163-21.127 47.163-47.162v-31.414h86.497v184.036H94.329V172.949zm0 231.2h873.897v85.823a293.165 293.165 0 00-57.819-5.74c-62.231 0-119.99 19.545-167.481 52.798v-37.095h-91.592v91.451h32.865c-41.555 50.561-66.538 115.236-66.538 185.638 0 24.793 3.111 48.874 8.941 71.881H94.329V404.149zm81.971 95.786v91.451h91.5v-91.451h-91.5zm158.329 0v91.451h91.5v-91.451h-91.5zm158.376 0v91.451h91.546v-91.451h-91.546zm417.402 31.459c135.503 0 245.675 110.176 245.675 245.63 0 135.456-110.172 245.633-245.675 245.633-135.406 0-245.583-110.177-245.583-245.633 0-135.454 110.177-245.63 245.583-245.63zm0 68.105c-26.081 0-47.168 21.13-47.168 47.164v83.197h-83.195c-26.082 0-47.165 21.13-47.165 47.164 0 26.035 21.083 47.162 47.165 47.162h83.195v83.152c0 26.034 21.087 47.164 47.168 47.164 26.036 0 47.165-21.083 47.165-47.164v-83.152h83.146c26.081 0 47.168-21.127 47.168-47.162 0-26.034-21.087-47.164-47.168-47.164h-83.146v-83.197c0-26.034-21.083-47.164-47.165-47.164zM176.3 646.901v91.451h91.5v-91.451h-91.5zm158.329 0v91.451h91.5v-91.451h-91.5zm158.376 0v91.451h91.546v-91.451h-91.546z"/></symbol><symbol id="email" viewBox="0 0 22 17"><path d="M10.879 10.546l-2.202-1.77-7.681 7.625h19.57l-7.54-7.638-2.147 1.783zm3.246-2.592l7.305 7.365c.042-.143.072-.291.072-.448V2.141l-7.377 5.813zM.255 2.112v12.76c0 .156.03.304.072.447l7.33-7.341L.256 2.112zM20.839.942H.92l9.959 7.739L20.838.943z" fill-rule="evenodd"/></symbol><symbol id="facebook" viewBox="0 0 11 21"><path d="M7.197.07c-.656 0-1.287.078-2.022.365-1.498.599-2.26 2.006-2.26 4.195v2.137h-2.1v3.57h2.1V20.63h4.282V10.337h2.916l.394-3.57h-3.31V5.15c0-.495.053-.86.184-1.068.184-.313.552-.47 1.13-.47h1.944V.07H7.197z" fill-rule="evenodd"/></symbol><symbol id="google" viewBox="0 0 23 16"><g fill-rule="evenodd"><path d="M7.54 6.903v2.4h3.97c-.16 1.03-1.2 3.02-3.97 3.02-2.39 0-4.34-1.98-4.34-4.42s1.95-4.42 4.34-4.42c1.36 0 2.27.58 2.79 1.08l1.9-1.83c-1.22-1.14-2.8-1.83-4.69-1.83-3.87 0-7 3.13-7 7s3.13 7 7 7c4.04 0 6.72-2.84 6.72-6.84 0-.46-.05-.81-.11-1.16H7.54z"/><path d="M7.54 7.023h6.61c.07.33.11.68.11 1.1v-.07c0-.46-.05-.81-.11-1.16H7.54v.13zm0-6c1.85 0 3.41.67 4.61 1.77l.07-.07C11.01 1.593 9.43.903 7.54.903c-3.87 0-7 3.13-7 7v.06c.04-3.83 3.16-6.94 7-6.94zm0 11.42c2.77 0 3.81-1.98 3.97-3.02h-.03c-.22 1.06-1.27 2.89-3.94 2.89-2.37 0-4.3-1.95-4.33-4.35 0 .02-.01.04-.01.06 0 2.44 1.95 4.42 4.34 4.42z" opacity=".4"/><g fill="#3E2723" opacity=".1"><path d="M7.54 3.483c-2.39 0-4.34 1.98-4.34 4.42 0 .02.01.04.01.06.03-2.41 1.96-4.35 4.33-4.35 1.36 0 2.27.58 2.79 1.08l1.9-1.83c-.02-.02-.05-.04-.07-.06l-1.83 1.77c-.52-.5-1.43-1.09-2.79-1.09zm0 5.82v.12h3.94c.01-.04.02-.09.03-.12H7.54z"/><path d="M7.54 14.903c-3.84 0-6.96-3.1-7-6.94v.06c0 3.87 3.13 7 7 7 4.04 0 6.72-2.84 6.72-6.84v-.06c-.03 3.97-2.7 6.78-6.72 6.78z"/></g><path d="M22.54 6.903h-2v-2h-2v2h-2v2h2v2h2v-2h2"/><path d="M20.54 6.903h2v.12h-2v-.12zm-2-2h2v.12h-2v-.12zm-2 2h2v.12h-2v-.12z" opacity=".4"/><path d="M16.54 8.903h2v.12h-2v-.12zm4 0h2v.12h-2v-.12zm-2 2h2v.12h-2v-.12z" opacity=".1" fill="#3E2723"/></g></symbol><symbol id="instagram" viewBox="0 0 16 16"><path d="M14.5 0h-13C.675 0 0 .675 0 1.5v13c0 .825.675 1.5 1.5 1.5h13c.825 0 1.5-.675 1.5-1.5v-13c0-.825-.675-1.5-1.5-1.5zM11 2.5c0-.275.225-.5.5-.5h2c.275 0 .5.225.5.5v2c0 .275-.225.5-.5.5h-2a.501.501 0 01-.5-.5v-2zM8 5a3.001 3.001 0 010 6 3.001 3.001 0 010-6zm6 8.5c0 .275-.225.5-.5.5h-11a.501.501 0 01-.5-.5V7h1.1A4.999 4.999 0 008 13a4.999 4.999 0 004.9-6H14v6.5z"/></symbol><symbol id="logo" viewBox="185 265 130 65"><script><![CDATA[
		window.addEventListener("load", () => {
			const needle = document.getElementById("needle");
			const wiggleRange = 35;
			const volatility = 2;
			const adjust = -20;
			let nudgeVal = 0;
			let up = true;
			const animation = () => {
				up = (Math.random() < (Math.abs(nudgeVal) / wiggleRange)) ? (nudgeVal < 0) : !up;
				nudgeVal += Math.random() * volatility * (up ? 1 : -1);
				needle.setAttribute('transform', 'rotate(' + (nudgeVal+adjust) + ' 279 298)');
				window.requestAnimationFrame(animation);
			}
			window.requestAnimationFrame(animation);
		}, false);
	]]></script><path id="needle" fill="#ed0677" d="M298.8 295.9l-.1-.9-17.6 1.4c-.5-.8-1.4-1.3-2.4-1.2-.9.1-1.7.7-2 1.5l-3.5.3.3 2.7 3.5-.5c.5.7 1.4 1.1 2.3 1 1-.1 1.8-.8 2.1-1.7l17.4-2.6z"/><path id="wheel" fill="#fff" d="M254.8 295.3c.1-1.2.3-2.4.6-3.5l4 1.1c.1-.3.2-.7.2-1l-4-1.1c.5-1.8 1.2-3.4 2.1-5l3.5 2c.2-.3.3-.6.5-.9l-3.6-2.1c.9-1.5 2.1-3 3.3-4.3l2.9 2.9.7-.7-2.9-2.9c1.3-1.2 2.7-2.4 4.3-3.3l2.1 3.6c.3-.2.6-.4.9-.5l-2-3.5c1.6-.9 3.2-1.6 5-2.1l1.1 4c.3-.1.6-.2 1-.2l-1.1-4c1.7-.4 3.5-.7 5.4-.7v4.1h1v-4.1c1.8 0 3.6.3 5.4.7l-1.1 4c.3.1.7.2 1 .2l1.1-4c1.8.5 3.4 1.2 5 2.1l-2 3.5c.3.2.6.3.9.5l2.1-3.6c1.5.9 3 2.1 4.3 3.3l-2.9 2.9.7.7 2.9-2.9c1.2 1.3 2.4 2.7 3.3 4.3l-3.6 2.1c.2.3.4.6.5.9l3.5-2c.9 1.6 1.6 3.2 2.1 5l-4 1.1c.1.3.2.6.2 1l4-1.1c.5 1.9.7 3.8.7 5.9 0 2-.3 4-.7 5.9l-4-1.1c-.1.3-.2.7-.2 1l4 1.1c-.5 1.8-1.2 3.4-2.1 5l-3.5-2c-.2.3-.3.6-.5.9l3.6 2.1c-.9 1.5-2.1 3-3.3 4.3l-2.9-2.9-.7.7 2.9 2.9c-1 .9-2 1.8-3.1 2.6l1.3 1.5c6.9-4.8 11.4-12.7 11.4-21.7 0-14.6-11.9-26.5-26.5-26.5-13.8 0-25.2 10.6-26.4 24.1l1.6-.3z"/><g id="wheel-blobs" fill="#fff"><circle cx="279.2" cy="267.6" r="1.5"/><circle cx="309.3" cy="297.6" r="1.5"/><circle cx="271.4" cy="268.6" r="1.5"/><circle cx="308.2" cy="289.8" r="1.5"/><circle cx="264.2" cy="271.6" r="1.5"/><circle cx="305.2" cy="282.6" r="1.5"/><circle cx="258" cy="276.4" r="1.5"/><circle cx="300.5" cy="318.8" r="1.5"/><circle cx="300.5" cy="276.4" r="1.5"/><circle cx="253.2" cy="282.6" r="1.5"/><circle cx="305.2" cy="312.6" r="1.5"/><circle cx="294.2" cy="271.6" r="1.5"/><circle cx="250.2" cy="289.8" r="1.5"/><circle cx="308.2" cy="305.4" r="1.5"/><circle cx="287" cy="268.6" r="1.5"/></g><path id="primary-text" fill="#fff" d="M197.8 309.2c.3.3.4.6.4 1s-.1.7-.4 1c-.3.3-.6.4-1 .4H189c-.4 0-.8-.1-1-.4-.3-.3-.4-.6-.4-1v-13.9c0-.4.1-.8.4-1 .3-.3.7-.4 1.1-.4.4 0 .7.1 1 .4.3.3.4.6.4 1v12.5h6.3c.3 0 .7.1 1 .4zm13.4-.6c-.6 1-1.4 1.8-2.4 2.4-1 .6-2.1.8-3.3.8-1.2 0-2.3-.3-3.3-.8-1-.6-1.8-1.3-2.4-2.4-.6-1-.9-2.2-.9-3.4s.3-2.4.9-3.4c.6-1 1.4-1.8 2.4-2.4 1-.6 2.1-.9 3.3-.9 1.2 0 2.3.3 3.3.9 1 .6 1.8 1.4 2.4 2.4.6 1 .9 2.2.9 3.4s-.3 2.4-.9 3.4zm-2.5-5.5c-.3-.6-.8-1.1-1.3-1.4-.6-.3-1.2-.5-1.8-.5-.7 0-1.3.2-1.8.5-.6.3-1 .8-1.3 1.4-.3.6-.5 1.3-.5 2.1s.2 1.5.5 2.1c.3.6.8 1.1 1.3 1.4.6.3 1.2.5 1.8.5.7 0 1.3-.2 1.8-.5.6-.3 1-.8 1.3-1.4.3-.6.5-1.3.5-2.1s-.2-1.5-.5-2.1zm15.7-3.1c.6 1 .9 2.3.9 4v6.1c0 .4-.1.8-.4 1s-.6.4-1 .4-.8-.1-1-.4c-.3-.3-.4-.6-.4-1V304c0-.9-.2-1.6-.6-2.1-.4-.5-1-.8-1.9-.8-.9 0-1.7.3-2.2.8-.5.5-.8 1.2-.8 2v6.1c0 .4-.1.8-.4 1-.3.3-.6.4-1 .4s-.8-.1-1-.4-.4-.6-.4-1v-9.9c0-.4.1-.8.4-1s.6-.4 1-.4.8.1 1 .4c.3.3.4.6.4 1v.4c.4-.6 1-1.1 1.7-1.5.7-.4 1.5-.6 2.3-.6 1.6.1 2.8.6 3.4 1.6zm15.2-5.7c.3.3.4.6.4 1.1v14.8c0 .4-.1.8-.4 1s-.6.4-1 .4-.8-.1-1-.4c-.3-.3-.4-.6-.4-1-.4.5-.9.9-1.6 1.2-.7.3-1.4.5-2.1.5-1.1 0-2.1-.3-3-.9-.9-.6-1.6-1.4-2.1-2.4s-.8-2.2-.8-3.4.3-2.4.8-3.4 1.2-1.8 2.1-2.4c.9-.6 1.9-.9 2.9-.9.8 0 1.5.1 2.2.4s1.2.6 1.7 1.1v-4.7c0-.4.1-.8.4-1 .3-.3.6-.4 1-.4.2 0 .6.1.9.4zm-3.4 13.8c.7-.8 1-1.7 1-2.9s-.3-2.1-1-2.9c-.7-.8-1.5-1.2-2.5-1.2s-1.9.4-2.5 1.2c-.7.8-1 1.7-1 2.9s.3 2.1 1 2.9c.6.8 1.5 1.1 2.5 1.1s1.9-.4 2.5-1.1zm18.1.5c-.6 1-1.4 1.8-2.4 2.4-1 .6-2.1.8-3.3.8-1.2 0-2.3-.3-3.3-.8-1-.6-1.8-1.3-2.4-2.4-.6-1-.9-2.2-.9-3.4s.3-2.4.9-3.4c.6-1 1.4-1.8 2.4-2.4 1-.6 2.1-.9 3.3-.9 1.2 0 2.3.3 3.3.9 1 .6 1.8 1.4 2.4 2.4.6 1 .9 2.2.9 3.4s-.4 2.4-.9 3.4zm-2.5-5.5c-.3-.6-.8-1.1-1.3-1.4-.6-.3-1.2-.5-1.8-.5-.7 0-1.3.2-1.8.5-.6.3-1 .8-1.3 1.4-.3.6-.5 1.3-.5 2.1s.2 1.5.5 2.1c.3.6.8 1.1 1.3 1.4.6.3 1.2.5 1.8.5.7 0 1.3-.2 1.8-.5.6-.3 1-.8 1.3-1.4.3-.6.5-1.3.5-2.1s-.2-1.5-.5-2.1zm15.7-3.1c.6 1 .9 2.3.9 4v6.1c0 .4-.1.8-.4 1s-.6.4-1 .4-.8-.1-1-.4c-.3-.3-.4-.6-.4-1V304c0-.9-.2-1.6-.6-2.1-.4-.5-1-.8-1.9-.8-.9 0-1.7.3-2.2.8-.5.5-.8 1.2-.8 2v6.1c0 .4-.1.8-.4 1-.3.3-.6.4-1 .4s-.8-.1-1-.4-.4-.6-.4-1v-9.9c0-.4.1-.8.4-1s.6-.4 1-.4.8.1 1 .4c.3.3.4.6.4 1v.4c.4-.6 1-1.1 1.7-1.5.7-.4 1.5-.6 2.3-.6 1.6.1 2.7.6 3.4 1.6z"/><path id="secondary-text" fill="#00b7bf" d="M194.3 317.2c.1.1.2.3.2.5v.3l-1.8 4.9c0 .1-.1.3-.3.3-.1.1-.3.1-.4.1h-.1c-.3 0-.5-.2-.6-.5l-1-3-1 3c-.1.3-.3.4-.6.5h-.1c-.1 0-.3 0-.4-.1l-.3-.3-1.8-4.9v-.3c0-.2.1-.4.2-.5.1-.1.3-.2.5-.2s.3 0 .4.1c.1.1.2.2.2.3l1.3 3.5.9-2.6c.1-.3.3-.4.7-.4.2 0 .3 0 .4.1.1.1.2.2.2.3l.9 2.5 1.3-3.5c0-.2.1-.3.3-.3s.3-.1.4-.1c.2.1.4.2.5.3zm6.7 3.3c-.1.1-.3.2-.5.2h-4c.1.5.3.8.7 1.1.3.3.7.4 1.2.4.3 0 .6 0 .8-.1.2-.1.3-.1.4-.2.1-.1.2-.1.2-.1.1-.1.3-.1.4-.1.2 0 .3.1.4.2s.2.3.2.4c0 .2-.1.4-.3.6-.2.2-.5.3-.9.5-.4.1-.8.2-1.1.2-.7 0-1.3-.1-1.8-.4s-.9-.7-1.2-1.2-.4-1-.4-1.7.1-1.3.4-1.8c.3-.5.7-.9 1.1-1.2.5-.3 1-.4 1.5-.4s1 .1 1.5.4c.5.3.8.7 1.1 1.2.3.5.4 1 .4 1.6.1.1 0 .3-.1.4zm-4.5-1h3.1v-.1c0-.3-.2-.6-.5-.9-.3-.2-.6-.4-1-.4-.9.1-1.4.5-1.6 1.4zm10.7-2.2c.4.3.8.7 1.1 1.2.3.5.4 1.1.4 1.7 0 .6-.1 1.2-.4 1.7-.3.5-.6.9-1 1.2s-.9.4-1.5.4c-.4 0-.7-.1-1.1-.2-.3-.2-.6-.3-.8-.6v.1c0 .2-.1.4-.2.5-.1.1-.3.2-.5.2s-.4-.1-.5-.2-.2-.3-.2-.5v-7.5c0-.2.1-.4.2-.5.1-.1.3-.2.5-.2s.4.1.5.2c.1.1.2.3.2.5v2.5c.2-.2.5-.5.8-.6.3-.2.7-.3 1.1-.3.5 0 1 .1 1.4.4zm-.4 4.3c.3-.4.5-.9.5-1.4s-.2-1.1-.5-1.4c-.3-.4-.7-.6-1.3-.6s-.9.2-1.3.6-.5.9-.5 1.4.2 1.1.5 1.4c.3.4.8.6 1.3.6s1-.2 1.3-.6zm11.2-4.3c.4.3.8.7 1.1 1.2.3.5.4 1.1.4 1.7 0 .6-.1 1.2-.4 1.7-.3.5-.6.9-1 1.2s-.9.4-1.5.4c-.4 0-.7-.1-1.1-.2-.3-.2-.6-.3-.8-.6v2.4c0 .2-.1.4-.2.5-.1.1-.3.2-.5.2s-.4-.1-.5-.2-.2-.3-.2-.5v-7.4c0-.2.1-.4.2-.5.1-.1.3-.2.5-.2s.4.1.5.2c.1.1.2.3.2.5.2-.2.5-.5.8-.6.3-.2.7-.3 1.1-.3.5.1 1 .2 1.4.5zm-.4 4.3c.3-.4.5-.9.5-1.4s-.2-1.1-.5-1.4c-.3-.4-.7-.6-1.3-.6s-.9.2-1.3.6-.5.9-.5 1.4.2 1.1.5 1.4c.3.4.8.6 1.3.6.6 0 1-.2 1.3-.6zm8.7-1.1c-.1.1-.3.2-.5.2h-4c.1.5.3.8.7 1.1.3.3.7.4 1.2.4.3 0 .6 0 .8-.1.2-.1.3-.1.4-.2.1-.1.2-.1.2-.1.1-.1.3-.1.4-.1.2 0 .3.1.4.2s.2.3.2.4c0 .2-.1.4-.3.6-.2.2-.5.3-.9.5-.4.1-.8.2-1.1.2-.7 0-1.3-.1-1.8-.4s-.9-.7-1.2-1.2-.4-1-.4-1.7.1-1.3.4-1.8c.3-.5.7-.9 1.1-1.2.5-.3 1-.4 1.5-.4s1 .1 1.5.4c.5.3.8.7 1.1 1.2.3.5.4 1 .4 1.6.1.1 0 .3-.1.4zm-4.5-1h3.1v-.1c0-.3-.2-.6-.5-.9-.3-.2-.6-.4-1-.4-.8.1-1.4.5-1.6 1.4zm9.8-2.4c.2.1.2.3.2.5s-.1.4-.2.6-.3.2-.5.2c-.1 0-.3 0-.4-.1h-.5c-.2 0-.4.1-.6.2s-.4.3-.5.6-.2.6-.2.9v2.8c0 .2-.1.4-.2.5-.1.1-.3.2-.5.2s-.4-.1-.5-.2c-.1-.1-.2-.3-.2-.5v-5c0-.2.1-.4.2-.5.1-.1.3-.2.5-.2s.4.1.5.2c.1.1.2.3.2.5v.2c.2-.3.4-.6.8-.8.3-.2.7-.3 1.1-.3.5 0 .7 0 .8.2zm3.9-1.1c-.1.2-.2.3-.2.5v.6h1.1c.2 0 .4.1.5.2s.2.3.2.5-.1.3-.2.5-.3.2-.5.2h-1.1v4.2c0 .2-.1.4-.2.5-.1.1-.3.2-.5.2s-.4-.1-.5-.2c-.1-.1-.2-.3-.2-.5v-4.2h-.6c-.2 0-.4-.1-.5-.2s-.2-.3-.2-.5.1-.3.2-.5.3-.2.5-.2h.6v-.6c0-.6.2-1.1.6-1.5s1-.6 1.8-.6c.3 0 .6.1.8.2.2.1.3.3.3.6 0 .2-.1.3-.2.5-.1.1-.2.2-.4.2h-.2c-.2 0-.4-.1-.5-.1-.3 0-.5.1-.6.2zm8.1 5.9c-.3.5-.7.9-1.2 1.2s-1 .4-1.6.4c-.6 0-1.2-.1-1.7-.4s-.9-.7-1.2-1.2-.4-1.1-.4-1.7c0-.6.1-1.2.4-1.7s.7-.9 1.2-1.2c.5-.3 1-.4 1.7-.4.6 0 1.1.1 1.6.4.5.3.9.7 1.2 1.2s.4 1.1.4 1.7c0 .6-.1 1.2-.4 1.7zm-1.2-2.7c-.2-.3-.4-.5-.7-.7s-.6-.3-.9-.3-.6.1-.9.3-.5.4-.7.7c-.2.3-.2.7-.2 1 0 .4.1.7.2 1 .2.3.4.5.7.7s.6.3.9.3.6-.1.9-.3.5-.4.7-.7c.2-.3.2-.7.2-1 0-.4-.1-.7-.2-1zm6.8-2.1c.2.1.2.3.2.5s-.1.4-.2.6-.3.2-.5.2c-.1 0-.3 0-.4-.1h-.5c-.2 0-.4.1-.6.2s-.4.3-.5.6-.2.6-.2.9v2.8c0 .2-.1.4-.2.5-.1.1-.3.2-.5.2s-.4-.1-.5-.2c-.1-.1-.2-.3-.2-.5v-5c0-.2.1-.4.2-.5.1-.1.3-.2.5-.2s.4.1.5.2c.1.1.2.3.2.5v.2c.2-.3.4-.6.8-.8.3-.2.7-.3 1.1-.3.4 0 .6 0 .8.2zm10.2.5c.3.5.5 1.2.5 2v3.1c0 .2-.1.4-.2.5-.1.1-.3.2-.5.2s-.4-.1-.5-.2c-.1-.1-.2-.3-.2-.5v-3.1c0-.4-.1-.8-.3-1s-.5-.4-.9-.4-.8.1-1.1.4c-.3.3-.4.6-.4 1v3.1c0 .2-.1.4-.2.5-.1.1-.3.2-.5.2s-.4-.1-.5-.2c-.1-.1-.2-.3-.2-.5v-3.1c0-.4-.1-.8-.3-1-.2-.3-.5-.4-.9-.4s-.8.1-1 .4c-.3.3-.4.6-.4 1v3.1c0 .2-.1.4-.2.5-.1.1-.3.2-.5.2s-.4-.1-.5-.2c-.1-.1-.2-.3-.2-.5v-5c0-.2.1-.4.2-.5.1-.1.3-.2.5-.2s.4.1.5.2c.1.1.2.3.2.5v.2c.2-.3.5-.5.8-.7s.7-.3 1.1-.3c1 0 1.7.4 1.9 1.3.2-.3.5-.6.8-.9.4-.3.8-.4 1.3-.4.9 0 1.4.2 1.7.7zm7.7-.5c.1.1.2.3.2.5v5.1c0 .2-.1.4-.2.5-.1.1-.3.2-.5.2s-.4-.1-.5-.2c-.1-.1-.2-.3-.2-.5-.2.2-.5.4-.8.6-.3.2-.7.2-1.1.2-.6 0-1.1-.1-1.5-.4-.4-.3-.8-.7-1.1-1.2-.3-.5-.4-1.1-.4-1.7 0-.6.1-1.2.4-1.7.3-.5.6-.9 1-1.2.4-.3.9-.4 1.5-.4.4 0 .7.1 1.1.2.3.1.6.3.9.5 0-.2.1-.4.2-.5.1-.1.3-.2.5-.2s.4 0 .5.2zm-1.6 4.5c.3-.4.5-.9.5-1.4 0-.6-.2-1.1-.5-1.4-.3-.4-.8-.6-1.3-.6s-.9.2-1.3.6-.5.9-.5 1.4c0 .6.2 1.1.5 1.4.3.4.7.6 1.3.6s.9-.2 1.3-.6zm8.5-4c.3.5.5 1.2.5 2v3.1c0 .2-.1.4-.2.5-.1.1-.3.2-.5.2s-.4-.1-.5-.2c-.1-.1-.2-.3-.2-.5v-3.1c0-.4-.1-.8-.3-1s-.5-.4-.9-.4c-.5 0-.8.1-1.1.4-.3.3-.4.6-.4 1v3.1c0 .2-.1.4-.2.5-.1.1-.3.2-.5.2s-.4-.1-.5-.2c-.1-.1-.2-.3-.2-.5v-5c0-.2.1-.4.2-.5.1-.1.3-.2.5-.2s.4.1.5.2c.1.1.2.3.2.5v.2c.2-.3.5-.5.8-.7s.7-.3 1.1-.3c.9 0 1.4.2 1.7.7zm6.5-.4c.4.2.6.5.6.8 0 .2-.1.3-.2.5s-.2.2-.4.2c-.1 0-.2 0-.3-.1s-.2-.1-.2-.1c-.1-.1-.1-.1-.2-.1s-.2-.1-.4-.1h-.4c-.6 0-1.1.2-1.4.6-.3.4-.5.9-.5 1.5s.2 1.1.5 1.4c.3.4.8.6 1.3.6.4 0 .7 0 .9-.1 0 0 .1-.1.2-.1s.2-.1.2-.1h.3c.2 0 .4.1.5.2.1.1.2.3.2.5s-.1.4-.3.5c-.2.2-.5.3-.9.4-.4.1-.8.1-1.2.1-.6 0-1.2-.1-1.6-.4-.5-.3-.8-.7-1.1-1.2-.3-.5-.4-1.1-.4-1.7 0-.6.1-1.2.4-1.7s.6-.9 1.1-1.2c.5-.3 1-.4 1.6-.4.7-.3 1.3-.2 1.7 0zm7.2 3.3c-.1.1-.3.2-.5.2h-4c.1.5.3.8.7 1.1.3.3.7.4 1.2.4.3 0 .6 0 .8-.1.2-.1.3-.1.4-.2.1-.1.2-.1.2-.1.1-.1.3-.1.4-.1.2 0 .3.1.4.2s.2.3.2.4c0 .2-.1.4-.3.6-.2.2-.5.3-.9.5-.4.1-.8.2-1.1.2-.7 0-1.3-.1-1.8-.4s-.9-.7-1.2-1.2-.4-1-.4-1.7.1-1.3.4-1.8c.3-.5.7-.9 1.1-1.2.5-.3 1-.4 1.5-.4s1 .1 1.5.4c.5.3.8.7 1.1 1.2.3.5.4 1 .4 1.6.1.1.1.3-.1.4zm-4.4-1h3.1v-.1c0-.3-.2-.6-.5-.9-.3-.2-.6-.4-1-.4-.9.1-1.5.5-1.6 1.4z"/></symbol><symbol id="logo_dark" viewBox="185 265 130 65"><script><![CDATA[
		window.addEventListener("load", () => {
			const needle = document.getElementById("needle");
			const wiggleRange = 19;
			const volatility = 1.5;
			const adjust = -20;
			let nudgeVal = 0;
			let up = true;
			const animation = () => {
				up = (Math.random() < (Math.abs(nudgeVal) / wiggleRange)) ? (nudgeVal < 0) : !up;
				nudgeVal += Math.random() * volatility * (up ? 1 : -1);
				needle.setAttribute('transform', 'rotate(' + (nudgeVal+adjust) + ' 279 298)');
				window.requestAnimationFrame(animation);
			}
			window.requestAnimationFrame(animation);
		}, false);
	]]></script><path id="needle" fill="#ed0677" d="M298.8 295.9l-.1-.9-17.6 1.4c-.5-.8-1.4-1.3-2.4-1.2-.9.1-1.7.7-2 1.5l-3.5.3.3 2.7 3.5-.5c.5.7 1.4 1.1 2.3 1 1-.1 1.8-.8 2.1-1.7l17.4-2.6z"/><path id="wheel" fill="#211d70" d="M254.8 295.3c.1-1.2.3-2.4.6-3.5l4 1.1c.1-.3.2-.7.2-1l-4-1.1c.5-1.8 1.2-3.4 2.1-5l3.5 2c.2-.3.3-.6.5-.9l-3.6-2.1c.9-1.5 2.1-3 3.3-4.3l2.9 2.9.7-.7-2.9-2.9c1.3-1.2 2.7-2.4 4.3-3.3l2.1 3.6c.3-.2.6-.4.9-.5l-2-3.5c1.6-.9 3.2-1.6 5-2.1l1.1 4c.3-.1.6-.2 1-.2l-1.1-4c1.7-.4 3.5-.7 5.4-.7v4.1h1v-4.1c1.8 0 3.6.3 5.4.7l-1.1 4c.3.1.7.2 1 .2l1.1-4c1.8.5 3.4 1.2 5 2.1l-2 3.5c.3.2.6.3.9.5l2.1-3.6c1.5.9 3 2.1 4.3 3.3l-2.9 2.9.7.7 2.9-2.9c1.2 1.3 2.4 2.7 3.3 4.3l-3.6 2.1c.2.3.4.6.5.9l3.5-2c.9 1.6 1.6 3.2 2.1 5l-4 1.1c.1.3.2.6.2 1l4-1.1c.5 1.9.7 3.8.7 5.9 0 2-.3 4-.7 5.9l-4-1.1c-.1.3-.2.7-.2 1l4 1.1c-.5 1.8-1.2 3.4-2.1 5l-3.5-2c-.2.3-.3.6-.5.9l3.6 2.1c-.9 1.5-2.1 3-3.3 4.3l-2.9-2.9-.7.7 2.9 2.9c-1 .9-2 1.8-3.1 2.6l1.3 1.5c6.9-4.8 11.4-12.7 11.4-21.7 0-14.6-11.9-26.5-26.5-26.5-13.8 0-25.2 10.6-26.4 24.1l1.6-.3z"/><g id="wheel-blobs" fill="#211d70"><circle cx="279.2" cy="267.6" r="1.5"/><circle cx="309.3" cy="297.6" r="1.5"/><circle cx="271.4" cy="268.6" r="1.5"/><circle cx="308.2" cy="289.8" r="1.5"/><circle cx="264.2" cy="271.6" r="1.5"/><circle cx="305.2" cy="282.6" r="1.5"/><circle cx="258" cy="276.4" r="1.5"/><circle cx="300.5" cy="318.8" r="1.5"/><circle cx="300.5" cy="276.4" r="1.5"/><circle cx="253.2" cy="282.6" r="1.5"/><circle cx="305.2" cy="312.6" r="1.5"/><circle cx="294.2" cy="271.6" r="1.5"/><circle cx="250.2" cy="289.8" r="1.5"/><circle cx="308.2" cy="305.4" r="1.5"/><circle cx="287" cy="268.6" r="1.5"/></g><path id="primary-text" fill="#211d70" d="M197.8 309.2c.3.3.4.6.4 1s-.1.7-.4 1c-.3.3-.6.4-1 .4H189c-.4 0-.8-.1-1-.4-.3-.3-.4-.6-.4-1v-13.9c0-.4.1-.8.4-1 .3-.3.7-.4 1.1-.4.4 0 .7.1 1 .4.3.3.4.6.4 1v12.5h6.3c.3 0 .7.1 1 .4zm13.4-.6c-.6 1-1.4 1.8-2.4 2.4-1 .6-2.1.8-3.3.8-1.2 0-2.3-.3-3.3-.8-1-.6-1.8-1.3-2.4-2.4-.6-1-.9-2.2-.9-3.4s.3-2.4.9-3.4c.6-1 1.4-1.8 2.4-2.4 1-.6 2.1-.9 3.3-.9 1.2 0 2.3.3 3.3.9 1 .6 1.8 1.4 2.4 2.4.6 1 .9 2.2.9 3.4s-.3 2.4-.9 3.4zm-2.5-5.5c-.3-.6-.8-1.1-1.3-1.4-.6-.3-1.2-.5-1.8-.5-.7 0-1.3.2-1.8.5-.6.3-1 .8-1.3 1.4-.3.6-.5 1.3-.5 2.1s.2 1.5.5 2.1c.3.6.8 1.1 1.3 1.4.6.3 1.2.5 1.8.5.7 0 1.3-.2 1.8-.5.6-.3 1-.8 1.3-1.4.3-.6.5-1.3.5-2.1s-.2-1.5-.5-2.1zm15.7-3.1c.6 1 .9 2.3.9 4v6.1c0 .4-.1.8-.4 1s-.6.4-1 .4-.8-.1-1-.4c-.3-.3-.4-.6-.4-1V304c0-.9-.2-1.6-.6-2.1-.4-.5-1-.8-1.9-.8-.9 0-1.7.3-2.2.8-.5.5-.8 1.2-.8 2v6.1c0 .4-.1.8-.4 1-.3.3-.6.4-1 .4s-.8-.1-1-.4-.4-.6-.4-1v-9.9c0-.4.1-.8.4-1s.6-.4 1-.4.8.1 1 .4c.3.3.4.6.4 1v.4c.4-.6 1-1.1 1.7-1.5.7-.4 1.5-.6 2.3-.6 1.6.1 2.8.6 3.4 1.6zm15.2-5.7c.3.3.4.6.4 1.1v14.8c0 .4-.1.8-.4 1s-.6.4-1 .4-.8-.1-1-.4c-.3-.3-.4-.6-.4-1-.4.5-.9.9-1.6 1.2-.7.3-1.4.5-2.1.5-1.1 0-2.1-.3-3-.9-.9-.6-1.6-1.4-2.1-2.4s-.8-2.2-.8-3.4.3-2.4.8-3.4 1.2-1.8 2.1-2.4c.9-.6 1.9-.9 2.9-.9.8 0 1.5.1 2.2.4s1.2.6 1.7 1.1v-4.7c0-.4.1-.8.4-1 .3-.3.6-.4 1-.4.2 0 .6.1.9.4zm-3.4 13.8c.7-.8 1-1.7 1-2.9s-.3-2.1-1-2.9c-.7-.8-1.5-1.2-2.5-1.2s-1.9.4-2.5 1.2c-.7.8-1 1.7-1 2.9s.3 2.1 1 2.9c.6.8 1.5 1.1 2.5 1.1s1.9-.4 2.5-1.1zm18.1.5c-.6 1-1.4 1.8-2.4 2.4-1 .6-2.1.8-3.3.8-1.2 0-2.3-.3-3.3-.8-1-.6-1.8-1.3-2.4-2.4-.6-1-.9-2.2-.9-3.4s.3-2.4.9-3.4c.6-1 1.4-1.8 2.4-2.4 1-.6 2.1-.9 3.3-.9 1.2 0 2.3.3 3.3.9 1 .6 1.8 1.4 2.4 2.4.6 1 .9 2.2.9 3.4s-.4 2.4-.9 3.4zm-2.5-5.5c-.3-.6-.8-1.1-1.3-1.4-.6-.3-1.2-.5-1.8-.5-.7 0-1.3.2-1.8.5-.6.3-1 .8-1.3 1.4-.3.6-.5 1.3-.5 2.1s.2 1.5.5 2.1c.3.6.8 1.1 1.3 1.4.6.3 1.2.5 1.8.5.7 0 1.3-.2 1.8-.5.6-.3 1-.8 1.3-1.4.3-.6.5-1.3.5-2.1s-.2-1.5-.5-2.1zm15.7-3.1c.6 1 .9 2.3.9 4v6.1c0 .4-.1.8-.4 1s-.6.4-1 .4-.8-.1-1-.4c-.3-.3-.4-.6-.4-1V304c0-.9-.2-1.6-.6-2.1-.4-.5-1-.8-1.9-.8-.9 0-1.7.3-2.2.8-.5.5-.8 1.2-.8 2v6.1c0 .4-.1.8-.4 1-.3.3-.6.4-1 .4s-.8-.1-1-.4-.4-.6-.4-1v-9.9c0-.4.1-.8.4-1s.6-.4 1-.4.8.1 1 .4c.3.3.4.6.4 1v.4c.4-.6 1-1.1 1.7-1.5.7-.4 1.5-.6 2.3-.6 1.6.1 2.7.6 3.4 1.6z"/><path id="secondary-text" fill="#00b7bf" d="M194.3 317.2c.1.1.2.3.2.5v.3l-1.8 4.9c0 .1-.1.3-.3.3-.1.1-.3.1-.4.1h-.1c-.3 0-.5-.2-.6-.5l-1-3-1 3c-.1.3-.3.4-.6.5h-.1c-.1 0-.3 0-.4-.1l-.3-.3-1.8-4.9v-.3c0-.2.1-.4.2-.5.1-.1.3-.2.5-.2s.3 0 .4.1c.1.1.2.2.2.3l1.3 3.5.9-2.6c.1-.3.3-.4.7-.4.2 0 .3 0 .4.1.1.1.2.2.2.3l.9 2.5 1.3-3.5c0-.2.1-.3.3-.3s.3-.1.4-.1c.2.1.4.2.5.3zm6.7 3.3c-.1.1-.3.2-.5.2h-4c.1.5.3.8.7 1.1.3.3.7.4 1.2.4.3 0 .6 0 .8-.1.2-.1.3-.1.4-.2.1-.1.2-.1.2-.1.1-.1.3-.1.4-.1.2 0 .3.1.4.2s.2.3.2.4c0 .2-.1.4-.3.6-.2.2-.5.3-.9.5-.4.1-.8.2-1.1.2-.7 0-1.3-.1-1.8-.4s-.9-.7-1.2-1.2-.4-1-.4-1.7.1-1.3.4-1.8c.3-.5.7-.9 1.1-1.2.5-.3 1-.4 1.5-.4s1 .1 1.5.4c.5.3.8.7 1.1 1.2.3.5.4 1 .4 1.6.1.1 0 .3-.1.4zm-4.5-1h3.1v-.1c0-.3-.2-.6-.5-.9-.3-.2-.6-.4-1-.4-.9.1-1.4.5-1.6 1.4zm10.7-2.2c.4.3.8.7 1.1 1.2.3.5.4 1.1.4 1.7 0 .6-.1 1.2-.4 1.7-.3.5-.6.9-1 1.2s-.9.4-1.5.4c-.4 0-.7-.1-1.1-.2-.3-.2-.6-.3-.8-.6v.1c0 .2-.1.4-.2.5-.1.1-.3.2-.5.2s-.4-.1-.5-.2-.2-.3-.2-.5v-7.5c0-.2.1-.4.2-.5.1-.1.3-.2.5-.2s.4.1.5.2c.1.1.2.3.2.5v2.5c.2-.2.5-.5.8-.6.3-.2.7-.3 1.1-.3.5 0 1 .1 1.4.4zm-.4 4.3c.3-.4.5-.9.5-1.4s-.2-1.1-.5-1.4c-.3-.4-.7-.6-1.3-.6s-.9.2-1.3.6-.5.9-.5 1.4.2 1.1.5 1.4c.3.4.8.6 1.3.6s1-.2 1.3-.6zm11.2-4.3c.4.3.8.7 1.1 1.2.3.5.4 1.1.4 1.7 0 .6-.1 1.2-.4 1.7-.3.5-.6.9-1 1.2s-.9.4-1.5.4c-.4 0-.7-.1-1.1-.2-.3-.2-.6-.3-.8-.6v2.4c0 .2-.1.4-.2.5-.1.1-.3.2-.5.2s-.4-.1-.5-.2-.2-.3-.2-.5v-7.4c0-.2.1-.4.2-.5.1-.1.3-.2.5-.2s.4.1.5.2c.1.1.2.3.2.5.2-.2.5-.5.8-.6.3-.2.7-.3 1.1-.3.5.1 1 .2 1.4.5zm-.4 4.3c.3-.4.5-.9.5-1.4s-.2-1.1-.5-1.4c-.3-.4-.7-.6-1.3-.6s-.9.2-1.3.6-.5.9-.5 1.4.2 1.1.5 1.4c.3.4.8.6 1.3.6.6 0 1-.2 1.3-.6zm8.7-1.1c-.1.1-.3.2-.5.2h-4c.1.5.3.8.7 1.1.3.3.7.4 1.2.4.3 0 .6 0 .8-.1.2-.1.3-.1.4-.2.1-.1.2-.1.2-.1.1-.1.3-.1.4-.1.2 0 .3.1.4.2s.2.3.2.4c0 .2-.1.4-.3.6-.2.2-.5.3-.9.5-.4.1-.8.2-1.1.2-.7 0-1.3-.1-1.8-.4s-.9-.7-1.2-1.2-.4-1-.4-1.7.1-1.3.4-1.8c.3-.5.7-.9 1.1-1.2.5-.3 1-.4 1.5-.4s1 .1 1.5.4c.5.3.8.7 1.1 1.2.3.5.4 1 .4 1.6.1.1 0 .3-.1.4zm-4.5-1h3.1v-.1c0-.3-.2-.6-.5-.9-.3-.2-.6-.4-1-.4-.8.1-1.4.5-1.6 1.4zm9.8-2.4c.2.1.2.3.2.5s-.1.4-.2.6-.3.2-.5.2c-.1 0-.3 0-.4-.1h-.5c-.2 0-.4.1-.6.2s-.4.3-.5.6-.2.6-.2.9v2.8c0 .2-.1.4-.2.5-.1.1-.3.2-.5.2s-.4-.1-.5-.2c-.1-.1-.2-.3-.2-.5v-5c0-.2.1-.4.2-.5.1-.1.3-.2.5-.2s.4.1.5.2c.1.1.2.3.2.5v.2c.2-.3.4-.6.8-.8.3-.2.7-.3 1.1-.3.5 0 .7 0 .8.2zm3.9-1.1c-.1.2-.2.3-.2.5v.6h1.1c.2 0 .4.1.5.2s.2.3.2.5-.1.3-.2.5-.3.2-.5.2h-1.1v4.2c0 .2-.1.4-.2.5-.1.1-.3.2-.5.2s-.4-.1-.5-.2c-.1-.1-.2-.3-.2-.5v-4.2h-.6c-.2 0-.4-.1-.5-.2s-.2-.3-.2-.5.1-.3.2-.5.3-.2.5-.2h.6v-.6c0-.6.2-1.1.6-1.5s1-.6 1.8-.6c.3 0 .6.1.8.2.2.1.3.3.3.6 0 .2-.1.3-.2.5-.1.1-.2.2-.4.2h-.2c-.2 0-.4-.1-.5-.1-.3 0-.5.1-.6.2zm8.1 5.9c-.3.5-.7.9-1.2 1.2s-1 .4-1.6.4c-.6 0-1.2-.1-1.7-.4s-.9-.7-1.2-1.2-.4-1.1-.4-1.7c0-.6.1-1.2.4-1.7s.7-.9 1.2-1.2c.5-.3 1-.4 1.7-.4.6 0 1.1.1 1.6.4.5.3.9.7 1.2 1.2s.4 1.1.4 1.7c0 .6-.1 1.2-.4 1.7zm-1.2-2.7c-.2-.3-.4-.5-.7-.7s-.6-.3-.9-.3-.6.1-.9.3-.5.4-.7.7c-.2.3-.2.7-.2 1 0 .4.1.7.2 1 .2.3.4.5.7.7s.6.3.9.3.6-.1.9-.3.5-.4.7-.7c.2-.3.2-.7.2-1 0-.4-.1-.7-.2-1zm6.8-2.1c.2.1.2.3.2.5s-.1.4-.2.6-.3.2-.5.2c-.1 0-.3 0-.4-.1h-.5c-.2 0-.4.1-.6.2s-.4.3-.5.6-.2.6-.2.9v2.8c0 .2-.1.4-.2.5-.1.1-.3.2-.5.2s-.4-.1-.5-.2c-.1-.1-.2-.3-.2-.5v-5c0-.2.1-.4.2-.5.1-.1.3-.2.5-.2s.4.1.5.2c.1.1.2.3.2.5v.2c.2-.3.4-.6.8-.8.3-.2.7-.3 1.1-.3.4 0 .6 0 .8.2zm10.2.5c.3.5.5 1.2.5 2v3.1c0 .2-.1.4-.2.5-.1.1-.3.2-.5.2s-.4-.1-.5-.2c-.1-.1-.2-.3-.2-.5v-3.1c0-.4-.1-.8-.3-1s-.5-.4-.9-.4-.8.1-1.1.4c-.3.3-.4.6-.4 1v3.1c0 .2-.1.4-.2.5-.1.1-.3.2-.5.2s-.4-.1-.5-.2c-.1-.1-.2-.3-.2-.5v-3.1c0-.4-.1-.8-.3-1-.2-.3-.5-.4-.9-.4s-.8.1-1 .4c-.3.3-.4.6-.4 1v3.1c0 .2-.1.4-.2.5-.1.1-.3.2-.5.2s-.4-.1-.5-.2c-.1-.1-.2-.3-.2-.5v-5c0-.2.1-.4.2-.5.1-.1.3-.2.5-.2s.4.1.5.2c.1.1.2.3.2.5v.2c.2-.3.5-.5.8-.7s.7-.3 1.1-.3c1 0 1.7.4 1.9 1.3.2-.3.5-.6.8-.9.4-.3.8-.4 1.3-.4.9 0 1.4.2 1.7.7zm7.7-.5c.1.1.2.3.2.5v5.1c0 .2-.1.4-.2.5-.1.1-.3.2-.5.2s-.4-.1-.5-.2c-.1-.1-.2-.3-.2-.5-.2.2-.5.4-.8.6-.3.2-.7.2-1.1.2-.6 0-1.1-.1-1.5-.4-.4-.3-.8-.7-1.1-1.2-.3-.5-.4-1.1-.4-1.7 0-.6.1-1.2.4-1.7.3-.5.6-.9 1-1.2.4-.3.9-.4 1.5-.4.4 0 .7.1 1.1.2.3.1.6.3.9.5 0-.2.1-.4.2-.5.1-.1.3-.2.5-.2s.4 0 .5.2zm-1.6 4.5c.3-.4.5-.9.5-1.4 0-.6-.2-1.1-.5-1.4-.3-.4-.8-.6-1.3-.6s-.9.2-1.3.6-.5.9-.5 1.4c0 .6.2 1.1.5 1.4.3.4.7.6 1.3.6s.9-.2 1.3-.6zm8.5-4c.3.5.5 1.2.5 2v3.1c0 .2-.1.4-.2.5-.1.1-.3.2-.5.2s-.4-.1-.5-.2c-.1-.1-.2-.3-.2-.5v-3.1c0-.4-.1-.8-.3-1s-.5-.4-.9-.4c-.5 0-.8.1-1.1.4-.3.3-.4.6-.4 1v3.1c0 .2-.1.4-.2.5-.1.1-.3.2-.5.2s-.4-.1-.5-.2c-.1-.1-.2-.3-.2-.5v-5c0-.2.1-.4.2-.5.1-.1.3-.2.5-.2s.4.1.5.2c.1.1.2.3.2.5v.2c.2-.3.5-.5.8-.7s.7-.3 1.1-.3c.9 0 1.4.2 1.7.7zm6.5-.4c.4.2.6.5.6.8 0 .2-.1.3-.2.5s-.2.2-.4.2c-.1 0-.2 0-.3-.1s-.2-.1-.2-.1c-.1-.1-.1-.1-.2-.1s-.2-.1-.4-.1h-.4c-.6 0-1.1.2-1.4.6-.3.4-.5.9-.5 1.5s.2 1.1.5 1.4c.3.4.8.6 1.3.6.4 0 .7 0 .9-.1 0 0 .1-.1.2-.1s.2-.1.2-.1h.3c.2 0 .4.1.5.2.1.1.2.3.2.5s-.1.4-.3.5c-.2.2-.5.3-.9.4-.4.1-.8.1-1.2.1-.6 0-1.2-.1-1.6-.4-.5-.3-.8-.7-1.1-1.2-.3-.5-.4-1.1-.4-1.7 0-.6.1-1.2.4-1.7s.6-.9 1.1-1.2c.5-.3 1-.4 1.6-.4.7-.3 1.3-.2 1.7 0zm7.2 3.3c-.1.1-.3.2-.5.2h-4c.1.5.3.8.7 1.1.3.3.7.4 1.2.4.3 0 .6 0 .8-.1.2-.1.3-.1.4-.2.1-.1.2-.1.2-.1.1-.1.3-.1.4-.1.2 0 .3.1.4.2s.2.3.2.4c0 .2-.1.4-.3.6-.2.2-.5.3-.9.5-.4.1-.8.2-1.1.2-.7 0-1.3-.1-1.8-.4s-.9-.7-1.2-1.2-.4-1-.4-1.7.1-1.3.4-1.8c.3-.5.7-.9 1.1-1.2.5-.3 1-.4 1.5-.4s1 .1 1.5.4c.5.3.8.7 1.1 1.2.3.5.4 1 .4 1.6.1.1.1.3-.1.4zm-4.4-1h3.1v-.1c0-.3-.2-.6-.5-.9-.3-.2-.6-.4-1-.4-.9.1-1.5.5-1.6 1.4z"/></symbol><symbol id="menu" viewBox="0 0 24 24"><path d="M3 5h18q.414 0 .707.293T22 6t-.293.707T21 7H3q-.414 0-.707-.293T2 6t.293-.707T3 5zm0 12h18q.414 0 .707.293T22 18t-.293.707T21 19H3q-.414 0-.707-.293T2 18t.293-.707T3 17zm0-6h18q.414 0 .707.293T22 12t-.293.707T21 13H3q-.414 0-.707-.293T2 12t.293-.707T3 11z"/></symbol><symbol id="pin" viewBox="0 0 100 125"><path d="M19.74 57.53l.18.26c.22.33.45.65.68 1l26.06 37.44a4.07 4.07 0 006.68 0l26-37.41c.25-.35.49-.69.73-1l.16-.24a36 36 0 10-60.47 0zM50 23.06a15 15 0 11-15 15 15 15 0 0115-15z"/></symbol><symbol id="search" viewBox="0 0 100 125"><path d="M43.2 81.3c8.5 0 16.4-2.9 22.8-7.6l21.2 21.2 7.8-7.8L73.8 66c4.7-6.4 7.6-14.2 7.6-22.8C81.4 22.1 64.3 5 43.3 5S5 22.2 5 43.2s17.2 38.1 38.2 38.1zm0-65.3c15 0 27.1 12.1 27.1 27.1S58.2 70.3 43.2 70.3 16 58.2 16 43.2 28.3 16 43.2 16z"/></symbol><symbol id="stream" viewBox="0 20 100 60"><switch><g><path d="M92.5 28.8c-.8-1.5-2.7-2.2-4.2-1.4-1.5.8-2.2 2.7-1.4 4.2 2.9 5.7 4.3 11.8 4.3 18.4s-1.5 12.7-4.3 18.4c-.8 1.5-.2 3.4 1.4 4.2.5.2.9.3 1.4.3 1.1 0 2.2-.6 2.8-1.7 3.3-6.6 5-13.7 5-21.2s-1.7-14.6-5-21.2zm-80.8-1.4c-1.5-.8-3.4-.2-4.2 1.4-3.3 6.6-5 13.7-5 21.2s1.7 14.6 5 21.2c.5 1.1 1.6 1.7 2.8 1.7.5 0 .9-.1 1.4-.3 1.5-.8 2.2-2.7 1.4-4.2-2.9-5.7-4.4-11.9-4.4-18.4s1.5-12.7 4.3-18.4c.8-1.5.2-3.4-1.3-4.2zm64 6.3c-1.5.8-2.2 2.7-1.4 4.2 1.9 3.8 2.9 7.8 2.9 12.1s-1 8.3-2.9 12.1c-.8 1.5-.2 3.4 1.4 4.2.5.2.9.3 1.4.3 1.1 0 2.2-.6 2.8-1.7 2.3-4.6 3.5-9.7 3.5-14.9 0-5.2-1.2-10.3-3.5-14.9-.8-1.5-2.7-2.1-4.2-1.4zm-51.4 0c-1.5-.8-3.4-.2-4.2 1.4-2.3 4.6-3.5 9.7-3.5 14.9s1.2 10.3 3.5 14.9c.5 1.1 1.6 1.7 2.8 1.7.5 0 1-.1 1.4-.3 1.5-.8 2.2-2.7 1.4-4.2-1.9-3.8-2.9-7.8-2.9-12.1s1-8.3 2.9-12.1c.8-1.5.2-3.4-1.4-4.2zm25.7-3c-10.6 0-19.3 8.7-19.3 19.3S39.4 69.3 50 69.3 69.3 60.6 69.3 50 60.7 30.7 50 30.7zM56.4 51l-8.9 5.9c-.8.5-1.8 0-1.8-1V44.1c0-.9 1-1.5 1.8-1l8.9 5.9c.6.5.6 1.5 0 2z"/></g></switch></symbol><symbol id="twitter" viewBox="0 0 16 16"><path d="M16 3.538a6.461 6.461 0 01-1.884.516 3.301 3.301 0 001.444-1.816 6.607 6.607 0 01-2.084.797 3.28 3.28 0 00-2.397-1.034 3.28 3.28 0 00-3.197 4.028 9.321 9.321 0 01-6.766-3.431 3.284 3.284 0 001.015 4.381A3.301 3.301 0 01.643 6.57v.041A3.283 3.283 0 003.277 9.83a3.291 3.291 0 01-1.485.057 3.293 3.293 0 003.066 2.281 6.586 6.586 0 01-4.862 1.359 9.286 9.286 0 005.034 1.475c6.037 0 9.341-5.003 9.341-9.341 0-.144-.003-.284-.009-.425a6.59 6.59 0 001.637-1.697z"/></symbol><symbol id="youtube" viewBox="0 0 16 16"><path d="M15.841 4.8s-.156-1.103-.637-1.587c-.609-.637-1.291-.641-1.603-.678-2.237-.163-5.597-.163-5.597-.163h-.006s-3.359 0-5.597.163c-.313.038-.994.041-1.603.678C.317 3.697.164 4.8.164 4.8S.005 6.094.005 7.391v1.213c0 1.294.159 2.591.159 2.591s.156 1.103.634 1.588c.609.637 1.409.616 1.766.684 1.281.122 5.441.159 5.441.159s3.363-.006 5.6-.166c.313-.037.994-.041 1.603-.678.481-.484.637-1.588.637-1.588s.159-1.294.159-2.591V7.39c-.003-1.294-.162-2.591-.162-2.591zm-9.494 5.275V5.578l4.322 2.256-4.322 2.241z"/></symbol></svg>